<?xml version="1.0" encoding="utf-8" ?><svg xmlns="http://www.w3.org/2000/svg" xmlns:xlink="http://www.w3.org/1999/xlink" width="1024" height="1024" viewBox="0 0 1024 1024"><path fill="#F77C10" d="M417.353 248.689C427.736 247.121 441.499 249.269 451.539 252.12C469.877 257.327 480.744 269.93 494.142 282.276C509.438 296.37 525.058 310.6 539.127 326.055C543.484 330.841 550.069 336.682 553.013 342.427C536.536 349.743 528.201 354.462 523.49 372.863C520.864 371.177 509.774 361.357 506.549 358.689L458.916 318.615C445.87 307.584 432.427 292.69 413.044 300.632C410.433 301.701 405.832 305.652 403.799 307.71C384.161 327.584 363.984 346.937 344.204 366.669C329.968 381.05 334.271 391.551 346.89 403.762C366.553 422.789 385.588 442.363 405.883 460.734C413.162 467.324 418.577 470.825 428.691 470.184C445.705 465.882 453.67 450.29 466.541 439.776L467.096 439.328C479.7 452.087 489.731 463.599 503.36 476.042C498.607 481.353 492.915 486.246 487.932 491.235C471.881 507.305 458.092 518.274 434.769 521.203C415.798 523.585 392.888 519.142 378.056 506.598C363.321 493.672 348.884 479.593 335.226 465.49C321.838 451.666 302.985 436.97 292.568 421.259C286.889 412.63 283.351 402.77 282.248 392.499C278.294 356.234 297.835 339.145 321.791 316.141C327.816 310.355 333.872 304.067 339.962 298.304C364.956 274.654 380.717 252.585 417.353 248.689Z"/><path fill="#F77C10" d="M594.839 248.694C600.066 248.291 605.593 248.711 610.794 249.303C621.966 250.486 632.713 254.242 642.19 260.276C654.795 268.239 672.932 286.991 683.753 298.066C710.535 325.475 748.495 350.248 741.378 393.754C737.503 417.443 727.001 428.593 710.766 444.253L689.041 465.318C675.181 478.884 660.462 494.653 645.704 506.826C629.934 519.34 608.641 523.744 589.042 521.275C561.763 517.84 544.456 500.286 525.739 482.097C515.363 472.138 505.178 461.98 495.192 451.629C488.766 444.998 475.99 432.141 470.568 425.071C478.724 422.957 481.333 422.139 488.102 417.144C496.335 410.285 498.717 405.323 503.046 395.826C510.437 400.296 521.025 409.665 527.809 415.562C540.362 426.41 552.707 437.495 564.841 448.811C574.623 457.885 585.583 471.748 599.492 470.146C603.185 469.721 609.322 468.885 612.27 466.549C623.054 458.002 632.633 447.626 642.579 438.055L670.842 410.486C676.116 405.34 681.929 400.163 686.687 394.544C692.095 387.781 691.002 379.015 685.547 372.751C669.756 354.62 651.418 339.02 634.475 321.98C628.134 315.602 621.259 308.803 614.055 303.46C610.489 300.815 604.2 298.814 599.816 298.358C587.075 297.671 578.879 307.889 570.975 316.148C566.856 320.405 562.75 324.433 558.337 328.144C549.232 319.208 541.177 308.683 531.847 299.879C529.222 297.402 525.251 293.774 523.325 290.81C523.48 290.615 523.634 290.42 523.789 290.226C538.325 276.227 552.219 259.706 571.841 252.923C580.2 250.033 586.769 249.42 594.839 248.694Z"/><path fill="#F77C10" d="M757.946 632.718C758.651 632.681 761.821 632.451 761.839 633.6C762.236 658.477 761.905 683.596 762.014 708.558C762.039 714.427 762.192 720.704 761.8 726.528C761.483 731.73 760.45 736.864 758.73 741.783C754.106 754.614 744.555 765.069 732.195 770.833C705.538 783.384 675.141 771.782 663.648 744.253C655.02 723.588 662.698 696.561 681.101 683.967C685.218 681.15 688.318 679.584 693.038 677.515C702.108 673.03 720.799 672.952 730.871 674.037C731.9 681.504 731.379 699.578 731.355 707.811C718.884 698.764 706.082 694.215 692.694 705.426C687.411 709.875 684.182 716.293 683.758 723.186C683.28 730.181 685.665 737.07 690.366 742.271C700.445 753.319 718.436 752.989 728.829 742.525C738.026 733.266 736.286 720.033 736.236 708.245L736.147 683.283C735.96 666.649 736.473 650.142 736.184 633.385C742.239 632.705 751.143 633.164 757.946 632.718Z"/><path fill="#F77C10" d="M873.67 738.999L874.146 739.189L874.509 740.233C868.352 766.601 838.781 780.553 813.456 775.364C784.035 769.335 767.001 743.329 773.114 714.073C779.003 685.886 808.313 668.066 836.025 674.587C862.372 680.524 881.434 707.797 875.812 734.533C862.514 734.577 849.195 733.653 835.647 733.863C832.453 733.913 802.591 734.648 801.421 732.612C799.425 729.141 800.504 716.451 801.886 711.73C809.77 711.292 818.137 711.917 826.05 711.614C834.212 711.302 842.972 712.286 851.037 711.452C835.955 686.754 798.408 692.091 795.381 722.484C794.797 728.347 796.624 735.639 799.803 740.614C803.755 746.805 810.045 751.133 817.24 752.612C827.022 754.606 836.662 752.144 842.722 744.264C843.985 742.623 845.885 739.631 847.685 738.906C848.624 738.191 850.356 737.029 851.494 736.932C854.953 736.638 870.317 735.189 872.618 736.207L873.67 738.999Z"/><path fill="#FFFDFD" d="M847.685 738.906C848.624 738.191 850.356 737.029 851.494 736.932C854.953 736.638 870.317 735.189 872.618 736.207L873.67 738.999C865.008 739.054 856.346 739.024 847.685 738.906Z"/><path fill="#F77C10" d="M550.237 674.486C558.633 674.436 567.03 674.431 575.426 674.471C576.286 678.769 575.852 692.311 575.812 697.308L575.691 734.125C575.76 747.473 576.308 762.853 575.835 775.968C567.487 775.974 559.141 775.805 550.801 775.461C550.05 766.398 550.853 751.73 550.428 741.475C550.308 741.576 550.187 741.676 550.067 741.776L549.476 742.289C547.027 744.384 545.829 745.652 545.551 748.967C544.834 757.508 545.484 766.867 545.47 775.446C539.749 776.112 531.803 775.834 525.938 775.64C512.142 775.182 500.222 769.5 490.936 759.234C485.919 753.763 482.259 747.188 480.251 740.041C476.76 727.394 478.166 706.566 477.941 692.853C477.851 687.348 477.652 679.93 477.903 674.53C485.994 674.369 494.767 674.573 502.913 674.603C503.508 678.687 503.321 684.785 503.326 689.055C503.343 697.563 503.307 706.071 503.219 714.578C503.175 720.023 502.911 726.724 504.219 731.968C505.241 736.059 507.283 739.824 510.153 742.913C518.351 751.667 535.516 753.675 544.407 745.039C551.884 737.778 550.422 724.263 550.418 714.602L550.237 674.486Z"/><path fill="#F77C10" d="M397.774 674.161C416.752 673.33 434.851 673.13 450.038 685.673C460.69 694.321 467.404 706.899 468.663 720.562C469.904 734.083 465.68 747.538 456.933 757.923C447.305 769.295 435.146 774.247 420.625 775.501C412.714 775.574 404.685 775.727 396.788 775.447C397.018 766.516 397.333 758.89 397.334 749.79C409.741 748.7 424.919 753.033 435.489 744.019C446.284 734.813 447.699 717.951 438.4 707.203C428.09 695.284 410.957 699.791 397.022 699.006C397.067 691.057 396.584 683.061 396.854 675.139C397.161 674.813 397.467 674.487 397.774 674.161Z"/><path fill="#F77C10" d="M387.052 632.757C388.936 632.558 389.311 632.424 391.18 632.96C394.441 638.251 389.484 755.048 392.744 768.468C393.581 771.913 393.854 772.825 391.493 775.313C388.224 775.852 374.944 775.611 370.623 775.687C369.171 775.676 367.276 775.803 365.793 775.859C365.618 767.803 365.967 758.336 365.992 750.078L366.052 696.889C366.12 675.947 365.486 653.481 365.829 632.807C372.903 632.93 379.979 632.913 387.052 632.757Z"/><path fill="#F77C10" d="M274.719 632.764C277.246 632.676 279.926 632.702 282.468 632.681C282.631 680.09 283.17 728.195 282.722 775.538C277.73 775.951 271.212 775.662 266.097 775.543C263.096 775.67 260.095 775.569 257.092 775.51C256.253 762.52 256.92 743.583 256.89 730.123L256.897 633.11C262.751 632.905 268.844 632.875 274.719 632.764Z"/><path fill="#F77C10" d="M624.878 633.096C632.258 632.594 642.853 632.98 650.464 633.077C651.037 665.936 650.559 699.708 650.526 732.647L650.512 761.573C650.511 764.503 650.705 772.636 650.28 775.16L649.229 775.707C641.375 775.802 632.695 775.848 624.882 775.509L624.878 633.096Z"/><path fill="#F77C10" d="M73.9043 674.534C82.0517 674.339 90.9243 674.526 99.1292 674.535C99.6368 677.974 99.3507 683.249 99.3154 686.885L99.2775 712.099C99.2763 716.785 99.0866 724.655 99.6901 729.007C100.083 731.958 100.981 734.819 102.343 737.467C107.209 746.88 116.85 751.654 127.282 750.539C132.786 749.95 136.648 747.743 141.466 745.25C141.312 754.22 141.199 761.747 141.517 770.757C141.564 772.618 141.699 773.316 141.083 775.101C138.992 776.33 135.794 775.912 133.408 775.934C114.145 776.113 100.974 773.34 87.118 758.925C71.3706 742.543 74.032 724.828 73.9968 703.938C73.9808 694.417 73.5758 684.039 73.9043 674.534Z"/><path fill="#F77C10" d="M464.072 356.033C481.132 355.374 495.481 368.7 496.085 385.761C496.69 402.823 483.319 417.13 466.255 417.681C449.268 418.229 435.038 404.931 434.436 387.945C433.835 370.959 447.088 356.688 464.072 356.033Z"/><path fill="#F77C10" d="M555.791 351.572C571.711 349.002 586.686 359.866 589.184 375.797C591.681 391.729 580.748 406.655 564.806 409.079C548.965 411.488 534.157 400.641 531.675 384.812C529.194 368.983 539.973 354.125 555.791 351.572Z"/><path fill="#F77C10" d="M145.899 674.472C151.716 674.003 165.041 674.443 171.478 674.468C172.324 679.559 171.884 700.436 171.888 706.494L171.948 775.985L163.395 775.827C159.166 775.588 149.146 776.374 146.077 775.009C144.562 771.549 146.436 750.158 145.276 742.339C144.183 742.801 142.202 745.477 141.278 746.573C142.605 743.375 145.148 737.725 145.457 734.374C147.253 714.916 145.155 693.89 145.899 674.472Z"/><path fill="#F77C10" d="M587.822 674.656C594.686 673.991 606.218 674.455 613.415 674.617C613.722 679.263 613.703 683.999 613.741 688.659L613.938 744.708C613.953 748.677 614.745 774.01 612.834 775.952C603.721 775.696 596.853 775.585 587.678 775.784C586.937 751.94 588.701 727.489 587.931 703.567C587.634 694.345 587.15 683.807 587.822 674.656Z"/><path fill="#F77C10" d="M921.007 676.112L921.262 676.338C921.041 678.044 918.046 680.981 917.101 682.86C910.929 695.124 915.451 707.006 913.098 719.964C910.829 732.459 912.865 747.182 912.305 759.979C912.068 765.391 912.774 770.42 911.959 775.944C903.87 775.807 897.115 775.561 888.917 775.682C886.994 775.616 887.693 776.005 886.48 774.997C886.134 765.73 886.294 755.882 886.459 746.604C886.774 728.81 884.065 708.454 895.359 693.328C900.675 686.208 912.167 677.425 921.007 676.112Z"/><path fill="#F77C10" d="M214.827 676.508C216.618 676.407 216.005 676.201 217.475 676.89C217.266 678.686 216.575 679.282 215.334 680.888C208.366 689.909 210.825 702.908 211.123 713.392C210.781 717.849 209.353 721.981 209.156 726.484C208.452 742.572 209.987 759.418 209.304 775.417C204.626 775.985 193.633 775.529 187.875 775.741C186.316 775.717 184.635 775.837 183.694 774.925C183.059 768.828 183.556 755.757 183.649 749.015C183.782 739.425 182.96 725.092 183.851 715.909C184.256 711.374 185.324 706.923 187.021 702.699C192.272 689.753 202.182 681.774 214.827 676.508Z"/><path fill="#F77C10" d="M293.412 707.71C313.831 708.366 334.25 707.539 354.417 708.155C354.176 712.007 354.49 726.957 353.83 728.822L352.88 729.156C345.367 730.087 327.896 729.199 319.783 729.293C313.119 729.37 298.161 729.621 292.302 728.915C291.773 723.615 291.868 714.49 292.279 708.998C292.347 708.084 292.525 708.245 293.412 707.71Z"/><path fill="#F77C10" d="M595.355 632.729C603.878 630.67 612.454 635.915 614.505 644.439C616.555 652.964 611.301 661.535 602.775 663.577C594.26 665.616 585.704 660.371 583.656 651.859C581.609 643.346 586.845 634.785 595.355 632.729Z"/><path fill="#F77C10" d="M935.006 674.203C939.479 674.1 943.954 674.104 948.426 674.215C948.687 681.799 948.747 691.961 948.41 699.402C941.278 699.405 934.716 698.799 927.975 700.989C924.72 702.115 921.299 705.488 919.193 705.586C919.106 705.135 919.019 704.685 918.932 704.235C918.726 692.117 919.646 676.051 935.006 674.203Z"/><path fill="#F77C10" d="M231.369 674.221C236.221 674.034 240.67 673.814 245.538 674.049L245.486 699.099C237.372 698.869 231.023 698.248 223.348 701.275L216.078 706.098C215.776 696.307 216.033 693.243 218.216 683.744C217.335 681.603 216.651 680.973 217.889 678.964C220.387 678.11 219.971 680.103 221.378 679.24C225.4 676.773 226.434 674.953 231.369 674.221Z"/></svg>